<?xml version="1.0" encoding="UTF-8"?>
<svg width="256px" height="256px" viewBox="0 0 256 256" version="1.1" xmlns="http://www.w3.org/2000/svg" xmlns:xlink="http://www.w3.org/1999/xlink" style="background: #FFFFFF;">
    <!-- Generator: Sketch 43.2 (39069) - http://www.bohemiancoding.com/sketch -->
    <title>icon</title>
    <desc>Created with Sketch.</desc>
    <defs></defs>
    <g id="Page-1" stroke="none" stroke-width="1" fill="none" fill-rule="evenodd">
        <g id="icon" fill-rule="nonzero">
            <g id="user" transform="translate(28.000000, 28.000000)">
                <path d="M143.75,0 C117.5,0 95.625,18.0625 89.425,42.3875 C89.9,42.6125 90.4125,42.6875 90.875,42.925 L91.575,43.05 C95.6125,43.7375 103.075,45 108.825,51.225 C114.55,57.4625 117.2375,64.65 117.6875,75.0875 C119.1625,81.675 119.4375,89.225 119.4875,94.5875 C120.825,97.7375 121.775,102.1375 121.325,107.7875 C128.2,110.7875 135.7625,112.5 143.75,112.5 C174.8125,112.5 200,87.3125 200,56.25 C200,25.1875 174.8125,0 143.75,0 Z" id="Shape" fill="#2196F3"></path>
                <path d="M156.25,81.25 C154.65,81.25 153.05,80.6375 151.825,79.425 L133.075,60.675 C131.9125,59.5 131.25,57.9125 131.25,56.25 L131.25,31.25 C131.25,27.8 134.05,25 137.5,25 C140.95,25 143.75,27.8 143.75,31.25 L143.75,53.6625 L160.675,70.5875 C163.1125,73.025 163.1125,76.9875 160.675,79.425 C159.45,80.6375 157.85,81.25 156.25,81.25 Z" id="Shape" fill="#FAFAFA"></path>
                <path d="M117.8,154.3375 L90.35,148.3625 L90.35,140.25 C91.7875,138.175 93.125,135.525 94.5125,132.775 C95.55,130.725 97.1125,127.625 97.7625,126.8875 C102.225,122.525 106.975,117.1125 108.45,109.9375 C109.925,102.8 108.0625,99.1375 106.9875,97.7 C106.9875,92.675 106.9875,83.5125 105.2375,76.7875 C105.0375,68.675 103.45,63.85 99.6375,59.7 C96.775,56.6 92.7375,55.925 89.5,55.375 C88.45,55.2 86.875,54.9375 86.4,54.7 C80.9375,51.6625 75.3875,50.175 68.5125,50 C54.6375,50.525 37.5875,59.3625 31.875,75.2125 C30.25,79.7125 30.25,86.4375 30.4,94.1375 L30.3875,97.1875 C29.3875,99.15 27.525,102.8125 29,109.9375 C30.475,117.125 35.225,122.5375 39.65,126.8625 C40.35,127.65 41.95,130.7625 43,132.825 C44.4,135.5625 45.7375,138.2 47.175,140.2625 L47.175,148.375 L19.725,154.35 C8.2875,156.8 0,167.075 0,178.7625 L0,193.75 C0,197.2 2.8,200 6.25,200 L131.25,200 C134.7,200 137.5,197.2 137.5,193.75 L137.5,178.7625 C137.5,167.075 129.2125,156.8 117.8,154.3375 Z" id="Shape" fill="#455A64"></path>
            </g>
        </g>
    </g>
</svg>